<svg width="16" height="16" viewBox="0 0 16 16" fill="none" xmlns="http://www.w3.org/2000/svg">
<path d="M8.18675 3.83691C10.2785 3.83691 12.0051 5.56348 12.0051 7.65527C12.0051 9.78027 10.2785 11.4736 8.18675 11.4736C6.06175 11.4736 4.36839 9.78027 4.36839 7.65527C4.36839 5.56348 6.06175 3.83691 8.18675 3.83691ZM8.18675 10.1455C9.54808 10.1455 10.6438 9.0498 10.6438 7.65527C10.6438 6.29395 9.54808 5.19824 8.18675 5.19824C6.79222 5.19824 5.69651 6.29395 5.69651 7.65527C5.69651 9.0498 6.82542 10.1455 8.18675 10.1455ZM13.0344 3.7041C13.0344 4.20215 12.636 4.60059 12.1379 4.60059C11.6399 4.60059 11.2414 4.20215 11.2414 3.7041C11.2414 3.20605 11.6399 2.80762 12.1379 2.80762C12.636 2.80762 13.0344 3.20605 13.0344 3.7041ZM15.5578 4.60059C15.6242 5.8291 15.6242 9.51465 15.5578 10.7432C15.4914 11.9385 15.2258 12.9678 14.3625 13.8643C13.4992 14.7275 12.4367 14.9932 11.2414 15.0596C10.0129 15.126 6.32737 15.126 5.09886 15.0596C3.90354 14.9932 2.87425 14.7275 1.97776 13.8643C1.11448 12.9678 0.848857 11.9385 0.782451 10.7432C0.716044 9.51465 0.716044 5.8291 0.782451 4.60059C0.848857 3.40527 1.11448 2.34277 1.97776 1.47949C2.87425 0.616211 3.90354 0.350586 5.09886 0.28418C6.32737 0.217773 10.0129 0.217773 11.2414 0.28418C12.4367 0.350586 13.4992 0.616211 14.3625 1.47949C15.2258 2.34277 15.4914 3.40527 15.5578 4.60059ZM13.9641 12.0381C14.3625 11.0752 14.2629 8.75098 14.2629 7.65527C14.2629 6.59277 14.3625 4.26855 13.9641 3.27246C13.6985 2.6416 13.2004 2.11035 12.5696 1.87793C11.5735 1.47949 9.24925 1.5791 8.18675 1.5791C7.09104 1.5791 4.76683 1.47949 3.80394 1.87793C3.13987 2.14355 2.64183 2.6416 2.3762 3.27246C1.97776 4.26855 2.07737 6.59277 2.07737 7.65527C2.07737 8.75098 1.97776 11.0752 2.3762 12.0381C2.64183 12.7021 3.13987 13.2002 3.80394 13.4658C4.76683 13.8643 7.09104 13.7646 8.18675 13.7646C9.24925 13.7646 11.5735 13.8643 12.5696 13.4658C13.2004 13.2002 13.7317 12.7021 13.9641 12.0381Z" fill="#704FE6"/>
<a href="https://www.figma.com/design/Nx4sNsAeWJfmVVOXuDSmxJ?node-id=2-2">
<rect fill="black" fill-opacity="0" x="0.18925" y="-1.275" width="14.875" height="19.55"/>
</a>
</svg>
