<svg width="14" height="17" viewBox="0 0 14 17" fill="none" xmlns="http://www.w3.org/2000/svg">
<path d="M7.57688 0.387695C10.698 0.387695 13.5534 2.5459 13.5534 5.83301C13.5534 8.9209 11.9597 12.374 8.44016 12.374C7.57688 12.374 6.54758 11.9424 6.11594 11.1787C5.38547 14.167 5.41868 14.6318 3.75852 16.9229C3.5925 16.9893 3.62571 16.9893 3.5261 16.8564C3.45969 16.2256 3.39329 15.6279 3.39329 14.9971C3.39329 12.9717 4.32297 10.0166 4.78782 8.05762C4.52219 7.52637 4.45579 6.92871 4.45579 6.36426C4.45579 3.70801 7.57688 3.30957 7.57688 5.50098C7.57688 6.7959 6.6804 8.02441 6.6804 9.28613C6.6804 10.1162 7.41086 10.7139 8.24094 10.7139C10.532 10.7139 11.2292 7.42676 11.2292 5.66699C11.2292 3.30957 9.56907 2.01465 7.27805 2.01465C4.655 2.01465 2.62961 3.90723 2.62961 6.56348C2.62961 7.8584 3.42649 8.52246 3.42649 8.82129C3.42649 9.08691 3.22727 9.9834 2.89524 9.9834C2.09836 9.9834 0.803442 8.65527 0.803442 6.33105C0.803442 2.64551 4.15696 0.387695 7.57688 0.387695Z" fill="#704FE6"/>
<a href="https://www.figma.com/design/Nx4sNsAeWJfmVVOXuDSmxJ?node-id=2-2">
<rect fill="black" fill-opacity="0" x="0.173438" y="-1.275" width="12.75" height="19.55"/>
</a>
</svg>
