<svg width="18" height="15" viewBox="0 0 18 15" fill="none" xmlns="http://www.w3.org/2000/svg">
<path d="M15.9402 4.20215C15.9402 4.36816 15.9402 4.50098 15.9402 4.66699C15.9402 9.28223 12.4539 14.5615 6.0457 14.5615C4.05352 14.5615 2.22734 13.9971 0.700001 13.001C0.965626 13.0342 1.23125 13.0674 1.53008 13.0674C3.15703 13.0674 4.65117 12.5029 5.84649 11.5732C4.31914 11.54 3.02422 10.5439 2.59258 9.14941C2.825 9.18262 3.02422 9.21582 3.25664 9.21582C3.55547 9.21582 3.8875 9.14941 4.15313 9.08301C2.55938 8.75098 1.36406 7.35645 1.36406 5.66309V5.62988C1.82891 5.89551 2.39336 6.02832 2.95781 6.06152C1.99492 5.43066 1.39727 4.36816 1.39727 3.17285C1.39727 2.50879 1.56328 1.91113 1.86211 1.41309C3.58867 3.50488 6.17852 4.89941 9.06719 5.06543C9.00078 4.7998 8.96758 4.53418 8.96758 4.26855C8.96758 2.34277 10.5281 0.782227 12.4539 0.782227C13.45 0.782227 14.3465 1.18066 15.0105 1.87793C15.7742 1.71191 16.5379 1.41309 17.202 1.01465C16.9363 1.84473 16.4051 2.50879 15.6746 2.94043C16.3719 2.87402 17.0691 2.6748 17.6668 2.40918C17.202 3.10645 16.6043 3.7041 15.9402 4.20215Z" fill="#704FE6"/>
<a href="https://www.figma.com/design/Nx4sNsAeWJfmVVOXuDSmxJ?node-id=2-2">
<rect fill="black" fill-opacity="0" x="0.200001" y="-1.275" width="17" height="19.55"/>
</a>
</svg>
