<svg width="46" height="46" viewBox="0 0 46 46" fill="none" xmlns="http://www.w3.org/2000/svg">
<rect x="0.5" y="0.450195" width="45" height="45" rx="22.5" fill="#704FE6"/>
<path d="M27.3501 25.2002C28.2355 25.2002 28.9881 25.5101 29.6079 26.1299C30.2277 26.7497 30.5376 27.5023 30.5376 28.3877C30.5376 29.2731 30.2277 30.0257 29.6079 30.6455C28.9881 31.2653 28.2355 31.5752 27.3501 31.5752C26.4646 31.5752 25.712 31.2653 25.0922 30.6455C24.4725 30.0257 24.1626 29.2731 24.1626 28.3877C24.1626 28.1442 24.1847 27.9118 24.229 27.6904L20.8422 25.5654C20.2667 26.0303 19.6027 26.2627 18.8501 26.2627C17.9646 26.2627 17.212 25.9528 16.5922 25.333C15.9725 24.7132 15.6626 23.9606 15.6626 23.0752C15.6626 22.1898 15.9725 21.4372 16.5922 20.8174C17.212 20.1976 17.9646 19.8877 18.8501 19.8877C19.6027 19.8877 20.2667 20.1201 20.8422 20.585L24.229 18.46C24.1847 18.2386 24.1626 18.0062 24.1626 17.7627C24.1626 16.8773 24.4725 16.1247 25.0922 15.5049C25.712 14.8851 26.4646 14.5752 27.3501 14.5752C28.2355 14.5752 28.9881 14.8851 29.6079 15.5049C30.2277 16.1247 30.5376 16.8773 30.5376 17.7627C30.5376 18.6481 30.2277 19.4007 29.6079 20.0205C28.9881 20.6403 28.2355 20.9502 27.3501 20.9502C26.5975 20.9502 25.9334 20.7178 25.3579 20.2529L21.9712 22.3779C22.0154 22.5993 22.0376 22.8317 22.0376 23.0752C22.0376 23.3187 22.0154 23.5511 21.9712 23.7725L25.3579 25.8975C25.9334 25.4326 26.5975 25.2002 27.3501 25.2002Z" fill="white"/>
</svg>
